<svg version="1.1" xmlns="http://www.w3.org/2000/svg" xmlns:xlink="http://www.w3.org/1999/xlink" x="0px" y="0px"
	 width="113.866px" height="56.934px" viewBox="0 0 113.866 56.934" enable-background="new 0 0 113.866 56.934"
	 xml:space="preserve">
<g id="Capa_1" display="none">
	<rect x="-28.467" display="inline" fill="none" stroke="#FF0000" stroke-miterlimit="10" width="28.467" height="14.233"/>
	<rect display="inline" fill="none" stroke="#FF0000" stroke-miterlimit="10" width="28.467" height="14.233"/>

		<rect x="-28.467" y="14.233" display="inline" fill="none" stroke="#FF0000" stroke-miterlimit="10" width="28.467" height="14.233"/>
	<rect y="14.233" display="inline" fill="none" stroke="#FF0000" stroke-miterlimit="10" width="28.467" height="14.233"/>
	<rect x="28.467" display="inline" fill="none" stroke="#FF0000" stroke-miterlimit="10" width="28.466" height="14.233"/>
	<rect x="56.933" display="inline" fill="none" stroke="#FF0000" stroke-miterlimit="10" width="28.467" height="14.233"/>

		<rect x="28.467" y="14.233" display="inline" fill="none" stroke="#FF0000" stroke-miterlimit="10" width="28.466" height="14.233"/>

		<rect x="56.933" y="14.233" display="inline" fill="none" stroke="#FF0000" stroke-miterlimit="10" width="28.467" height="14.233"/>

		<rect x="-28.467" y="28.467" display="inline" fill="none" stroke="#FF0000" stroke-miterlimit="10" width="28.467" height="14.233"/>
	<rect y="28.467" display="inline" fill="none" stroke="#FF0000" stroke-miterlimit="10" width="28.467" height="14.233"/>

		<rect x="-28.467" y="42.7" display="inline" fill="none" stroke="#FF0000" stroke-miterlimit="10" width="28.467" height="14.233"/>
	<rect y="42.7" display="inline" fill="none" stroke="#FF0000" stroke-miterlimit="10" width="28.467" height="14.233"/>

		<rect x="28.467" y="28.467" display="inline" fill="none" stroke="#FF0000" stroke-miterlimit="10" width="28.466" height="14.233"/>

		<rect x="56.933" y="28.467" display="inline" fill="none" stroke="#FF0000" stroke-miterlimit="10" width="28.467" height="14.233"/>
	<rect x="28.467" y="42.7" display="inline" fill="none" stroke="#FF0000" stroke-miterlimit="10" width="28.466" height="14.233"/>
	<rect x="56.933" y="42.7" display="inline" fill="none" stroke="#FF0000" stroke-miterlimit="10" width="28.467" height="14.233"/>
</g>
<g id="Capa_1_copia_2" display="none">
	<rect display="inline" fill="none" stroke="#FF0000" stroke-miterlimit="10" width="14.233" height="7.117"/>
	<rect x="14.233" display="inline" fill="none" stroke="#FF0000" stroke-miterlimit="10" width="14.233" height="7.117"/>
	<rect y="7.117" display="inline" fill="none" stroke="#FF0000" stroke-miterlimit="10" width="14.233" height="7.117"/>
	<rect x="14.233" y="7.117" display="inline" fill="none" stroke="#FF0000" stroke-miterlimit="10" width="14.233" height="7.117"/>
	<rect x="28.467" display="inline" fill="none" stroke="#FF0000" stroke-miterlimit="10" width="14.233" height="7.117"/>
	<rect x="42.7" display="inline" fill="none" stroke="#FF0000" stroke-miterlimit="10" width="14.233" height="7.117"/>
	<rect x="28.467" y="7.117" display="inline" fill="none" stroke="#FF0000" stroke-miterlimit="10" width="14.233" height="7.117"/>
	<rect x="42.7" y="7.117" display="inline" fill="none" stroke="#FF0000" stroke-miterlimit="10" width="14.233" height="7.117"/>
	<rect y="14.233" display="inline" fill="none" stroke="#FF0000" stroke-miterlimit="10" width="14.233" height="7.117"/>

		<rect x="14.233" y="14.233" display="inline" fill="none" stroke="#FF0000" stroke-miterlimit="10" width="14.233" height="7.117"/>
	<rect y="21.35" display="inline" fill="none" stroke="#FF0000" stroke-miterlimit="10" width="14.233" height="7.117"/>
	<rect x="14.233" y="21.35" display="inline" fill="none" stroke="#FF0000" stroke-miterlimit="10" width="14.233" height="7.117"/>

		<rect x="28.467" y="14.233" display="inline" fill="none" stroke="#FF0000" stroke-miterlimit="10" width="14.233" height="7.117"/>
	<rect x="42.7" y="14.233" display="inline" fill="none" stroke="#FF0000" stroke-miterlimit="10" width="14.233" height="7.117"/>
	<rect x="28.467" y="21.35" display="inline" fill="none" stroke="#FF0000" stroke-miterlimit="10" width="14.233" height="7.117"/>
	<rect x="42.7" y="21.35" display="inline" fill="none" stroke="#FF0000" stroke-miterlimit="10" width="14.233" height="7.117"/>
	<rect y="28.467" display="inline" fill="none" stroke="#FF0000" stroke-miterlimit="10" width="14.233" height="7.117"/>

		<rect x="14.233" y="28.467" display="inline" fill="none" stroke="#FF0000" stroke-miterlimit="10" width="14.233" height="7.117"/>
	<rect y="35.583" display="inline" fill="none" stroke="#FF0000" stroke-miterlimit="10" width="14.233" height="7.117"/>

		<rect x="14.233" y="35.583" display="inline" fill="none" stroke="#FF0000" stroke-miterlimit="10" width="14.233" height="7.117"/>

		<rect x="28.467" y="28.467" display="inline" fill="none" stroke="#FF0000" stroke-miterlimit="10" width="14.233" height="7.117"/>
	<rect x="42.7" y="28.467" display="inline" fill="none" stroke="#FF0000" stroke-miterlimit="10" width="14.233" height="7.117"/>

		<rect x="28.467" y="35.583" display="inline" fill="none" stroke="#FF0000" stroke-miterlimit="10" width="14.233" height="7.117"/>
	<rect x="42.7" y="35.583" display="inline" fill="none" stroke="#FF0000" stroke-miterlimit="10" width="14.233" height="7.117"/>
	<rect y="42.7" display="inline" fill="none" stroke="#FF0000" stroke-miterlimit="10" width="14.233" height="7.117"/>
	<rect x="14.233" y="42.7" display="inline" fill="none" stroke="#FF0000" stroke-miterlimit="10" width="14.233" height="7.117"/>
	<rect y="49.817" display="inline" fill="none" stroke="#FF0000" stroke-miterlimit="10" width="14.233" height="7.117"/>

		<rect x="14.233" y="49.817" display="inline" fill="none" stroke="#FF0000" stroke-miterlimit="10" width="14.233" height="7.117"/>
	<rect x="28.467" y="42.7" display="inline" fill="none" stroke="#FF0000" stroke-miterlimit="10" width="14.233" height="7.117"/>
	<rect x="42.7" y="42.7" display="inline" fill="none" stroke="#FF0000" stroke-miterlimit="10" width="14.233" height="7.117"/>

		<rect x="28.467" y="49.817" display="inline" fill="none" stroke="#FF0000" stroke-miterlimit="10" width="14.233" height="7.117"/>
	<rect x="42.7" y="49.817" display="inline" fill="none" stroke="#FF0000" stroke-miterlimit="10" width="14.233" height="7.117"/>
</g>
<g id="Capa_1_copia" display="none">
	<rect x="-28.467" display="inline" fill="none" stroke="#1D1D1B" stroke-miterlimit="10" width="28.467" height="28.467"/>
	<rect display="inline" fill="none" stroke="#1D1D1B" stroke-miterlimit="10" width="28.467" height="28.467"/>

		<rect x="-28.467" y="28.467" display="inline" fill="none" stroke="#1D1D1B" stroke-miterlimit="10" width="28.467" height="28.467"/>
	<rect y="28.467" display="inline" fill="none" stroke="#1D1D1B" stroke-miterlimit="10" width="28.467" height="28.467"/>
	<rect x="28.467" display="inline" fill="none" stroke="#1D1D1B" stroke-miterlimit="10" width="28.466" height="28.467"/>
	<rect x="56.933" display="inline" fill="none" stroke="#1D1D1B" stroke-miterlimit="10" width="28.467" height="28.467"/>

		<rect x="28.467" y="28.467" display="inline" fill="none" stroke="#1D1D1B" stroke-miterlimit="10" width="28.466" height="28.467"/>

		<rect x="56.933" y="28.467" display="inline" fill="none" stroke="#1D1D1B" stroke-miterlimit="10" width="28.467" height="28.467"/>
</g>
<g id="Capa_2">
	<path fill="none" stroke="#FFF800" stroke-width="10" stroke-miterlimit="10" d="M113.866,7.117
		c-14.233,0-22.505,10.767-28.467,21.35c-5.505,9.773-14.233,21.35-28.466,21.35S33.972,38.24,28.467,28.467
		C22.505,17.884,14.233,7.117,0,7.117"/>
	<path fill="none" stroke="#FFF800" stroke-width="10" stroke-miterlimit="10" d="M-56.933,49.817
		c14.233,0,22.961-11.577,28.466-21.35C-22.505,17.884-14.233,7.117,0,7.117"/>
</g>
</svg>
