<svg version="1.1" xmlns="http://www.w3.org/2000/svg" xmlns:xlink="http://www.w3.org/1999/xlink" x="0px" y="0px"
	 width="112.443px" height="112.451px" viewBox="0 0 112.443 112.451" enable-background="new 0 0 112.443 112.451"
	 xml:space="preserve">
		<path d="M80.329,32.115c-8.874,0-16.066,7.195-16.066,16.068c0-8.873-7.195-16.068-16.069-16.068s-16.067,7.195-16.067,16.068
			c0-8.873-7.195-16.068-16.068-16.068v16.068V80.32c0,8.873,7.194,16.067,16.068,16.067s16.067-7.194,16.067-16.067
			c0,8.873,7.194,16.067,16.069,16.067c8.873,0,16.066-7.194,16.066-16.067c0,8.873,7.195,16.067,16.068,16.067V80.32V48.184
			C96.397,39.311,89.203,32.115,80.329,32.115z M40.16,80.32c-4.438,0-8.034-3.597-8.034-8.034V56.218
			c0-4.438,3.597-8.034,8.034-8.034c4.436,0,8.033,3.596,8.033,8.034v16.068C48.193,76.724,44.595,80.32,40.16,80.32z
			 M72.294,80.32c-4.436,0-8.032-3.597-8.032-8.034V56.218c0-4.438,3.597-8.034,8.032-8.034c4.438,0,8.034,3.596,8.034,8.034
			v16.068C80.329,76.724,76.732,80.32,72.294,80.32z"/>
		<path d="M24.09,8.014c-4.436,0-8.033,3.597-8.033,8.035c0,3.169,1.841,5.898,4.51,7.204l-0.007,0.015l11.565,5.653V16.049
			C32.125,11.61,28.529,8.014,24.09,8.014z"/>
		<path d="M56.227,8.014c-4.438,0-8.034,3.597-8.034,8.035c0,3.169,1.841,5.898,4.511,7.204l-0.008,0.015l11.566,5.653V16.049
			C64.262,11.61,60.665,8.014,56.227,8.014z"/>
</svg>
